<svg xmlns="http://www.w3.org/2000/svg" width="180" height="252" viewBox="0 0 180 252">
  <defs>
    <filter id="shadow" x="-20%" y="-20%" width="140%" height="140%">
      <feDropShadow dx="0" dy="4" stdDeviation="4" flood-color="#000" flood-opacity="0.25"/>
    </filter>
    <linearGradient id="bg" x1="0" y1="0" x2="0" y2="1">
      <stop offset="0" stop-color="#ffffff"/>
      <stop offset="1" stop-color="#f7f7f7"/>
    </linearGradient>
    <linearGradient id="gold" x1="0" y1="0" x2="1" y2="1">
      <stop offset="0" stop-color="#f6e08b"/>
      <stop offset="1" stop-color="#d4af37"/>
    </linearGradient>
    <clipPath id="cardClip">
      <rect x="8" y="8" width="164" height="236" rx="14"/>
    </clipPath>
  </defs>

  <rect x="8" y="8" width="164" height="236" rx="14" fill="url(#bg)" stroke="#d0d0d0" stroke-width="2" filter="url(#shadow)"/>
  <g clip-path="url(#cardClip)">
    
    <rect x="14" y="14" width="152" height="224" rx="12" fill="none" stroke="url(#gold)" stroke-width="2" opacity="0.85"/>

    <text x="20" y="16" dominant-baseline="text-before-edge" font-family="ui-sans-serif, system-ui" font-size="18" font-weight="900" fill="#d32f2f">J</text>
    <text x="20" y="34" dominant-baseline="text-before-edge" font-family="ui-sans-serif, system-ui" font-size="18" font-weight="900" fill="#d32f2f">♥</text>

    <text x="160" y="236" text-anchor="end" dominant-baseline="text-after-edge" font-family="ui-sans-serif, system-ui" font-size="18" font-weight="900" fill="#d32f2f">J</text>
    <text x="160" y="218" text-anchor="end" dominant-baseline="text-after-edge" font-family="ui-sans-serif, system-ui" font-size="18" font-weight="900" fill="#d32f2f">♥</text>

    <rect x="44" y="44" width="92" height="164" rx="14" fill="#fbfbfb" stroke="rgba(0,0,0,.08)"/>
    <path d="M62 58 Q98 38 134 58" fill="none" stroke="#2b6cb0" stroke-width="4" stroke-linecap="round"/>
      <rect x="64" y="58" width="68" height="10" rx="5" fill="#2b6cb0" opacity="0.95"/>
    <circle cx="98" cy="98" r="26" fill="#f1d3b5" stroke="rgba(0,0,0,.10)"/>
    <circle cx="88" cy="96" r="3" fill="#222"/>
    <circle cx="108" cy="96" r="3" fill="#222"/>
    <path d="M92 110 Q98 114 104 110" fill="none" stroke="#b36b5e" stroke-width="3" stroke-linecap="round"/>
    <path d="M64 210 Q98 172 132 210" fill="#2b6cb0" opacity="0.85"/>
    <path d="M74 210 Q98 184 122 210" fill="#2b6cb0" opacity="0.65"/>
    <text x="98" y="170" text-anchor="middle" font-family="ui-sans-serif, system-ui" font-size="42" font-weight="900" fill="#d32f2f" opacity="0.95">♥</text>
    <rect x="64" y="148" width="68" height="18" rx="9" fill="rgba(0,0,0,.06)"/>
    <text x="98" y="150" dominant-baseline="text-before-edge" text-anchor="middle" font-family="ui-sans-serif, system-ui" font-size="12" font-weight="900" fill="#333">J</text>
    
  </g>
</svg>
