<svg xmlns="http://www.w3.org/2000/svg" viewBox="0 0 240 336">
  <defs>
    <linearGradient id="g" x1="0" x2="1" y1="0" y2="1">
      <stop offset="0" stop-color="#fff"/>
      <stop offset="1" stop-color="#f3f6ff"/>
    </linearGradient>
  </defs>
  <rect x="8" y="8" width="224" height="320" rx="18" fill="url(#g)" stroke="#1b2440" stroke-width="4"/>
  <text x="22" y="44" font-family="system-ui, -apple-system, Segoe UI, Roboto" font-size="28" font-weight="800" fill="#111a33">BJ</text>
  <text x="22" y="74" font-family="system-ui, -apple-system, Segoe UI, Roboto" font-size="18" font-weight="700" fill="#111a33">小王</text>

  <!-- 小丑圖案 -->
  <g transform="translate(120, 180)">
    <circle cx="0" cy="-30" r="28" fill="#111a33"/>
    <circle cx="-10" cy="-38" r="5" fill="#fff"/>
    <circle cx="10" cy="-38" r="5" fill="#fff"/>
    <circle cx="-10" cy="-38" r="2" fill="#111a33"/>
    <circle cx="10" cy="-38" r="2" fill="#111a33"/>
    <path d="M-12,-22 Q0,-12 12,-22" stroke="#fff" stroke-width="3" fill="none"/>
    <polygon points="-30,-60 -15,-30 0,-65 15,-30 30,-60 20,-40 0,-50 -20,-40" fill="#4a90d9"/>
    <circle cx="-25" cy="-60" r="8" fill="#ffd66a"/>
    <circle cx="25" cy="-60" r="8" fill="#ffd66a"/>
    <circle cx="0" cy="-70" r="8" fill="#ff6b6b"/>
  </g>

  <text x="218" y="312" text-anchor="end" font-family="system-ui, -apple-system, Segoe UI, Roboto" font-size="28" font-weight="800" fill="#111a33">BJ</text>
</svg>
